<svg width="96" height="96" viewBox="0 0 96 96" fill="none" xmlns="http://www.w3.org/2000/svg">
  <defs>
    <linearGradient id="skilltwinGradient" x1="14" y1="12" x2="82" y2="84" gradientUnits="userSpaceOnUse">
      <stop stop-color="#FF7A18"/>
      <stop offset="0.52" stop-color="#FFD166"/>
      <stop offset="1" stop-color="#70E1F5"/>
    </linearGradient>
  </defs>
  <rect x="8" y="8" width="80" height="80" rx="24" fill="#07111F"/>
  <rect x="10" y="10" width="76" height="76" rx="22" fill="url(#skilltwinGradient)" fill-opacity="0.18" stroke="url(#skilltwinGradient)" stroke-width="2"/>
  <path d="M29 34C31.5 29.5 35.6 26 40.8 24.6C45.9 23.1 51.4 23.8 56 26.4C60.5 29 63.8 33.4 65.2 38.6C66.6 43.8 66 49.3 63.5 54" stroke="url(#skilltwinGradient)" stroke-width="4" stroke-linecap="round"/>
  <path d="M33 62C39.4 68.2 49.8 69.7 57.9 65.8C66 61.8 71 53 70.6 44" stroke="#70E1F5" stroke-width="4" stroke-linecap="round"/>
  <path d="M34 31H60" stroke="#F8FAFC" stroke-width="6" stroke-linecap="round"/>
  <path d="M47 31V65" stroke="#F8FAFC" stroke-width="6" stroke-linecap="round"/>
  <path d="M36 48H53" stroke="#F8FAFC" stroke-width="6" stroke-linecap="round"/>
</svg>
